<?xml version="1.0" encoding="UTF-8" standalone="no"?>
<svg
   width="90.772728mm"
   height="90.772728mm"
   viewBox="0 0 90.772728 90.772728"
   version="1.1"
   id="svg8"
   inkscape:version="1.1.1 (3bf5ae0d25, 2021-09-20)"
   sodipodi:docname="button_mine_hit.svg"
   inkscape:export-filename="/home/jann/Entwicklung/q-g-j/qminesweeper/images/button_mine_hit.png"
   inkscape:export-xdpi="16.790001"
   inkscape:export-ydpi="16.790001"
   xmlns:inkscape="http://www.inkscape.org/namespaces/inkscape"
   xmlns:sodipodi="http://sodipodi.sourceforge.net/DTD/sodipodi-0.dtd"
   xmlns="http://www.w3.org/2000/svg"
   xmlns:svg="http://www.w3.org/2000/svg"
   xmlns:rdf="http://www.w3.org/1999/02/22-rdf-syntax-ns#"
   xmlns:cc="http://creativecommons.org/ns#"
   xmlns:dc="http://purl.org/dc/elements/1.1/">
  <defs
     id="defs2">
    <inkscape:perspective
       sodipodi:type="inkscape:persp3d"
       inkscape:vp_x="0 : -57.727275 : 1"
       inkscape:vp_y="0 : 999.99995 : 0"
       inkscape:vp_z="210 : -57.727275 : 1"
       inkscape:persp3d-origin="105 : -107.22727 : 1"
       id="perspective29" />
    <marker
       inkscape:stockid="Arrow1Lstart"
       orient="auto"
       refY="0"
       refX="0"
       id="marker1882-6"
       style="overflow:visible"
       inkscape:isstock="true">
      <path
         id="path1880-2"
         d="M 0,0 5,-5 -12.5,0 5,5 Z"
         style="fill:#000000;fill-opacity:1;fill-rule:evenodd;stroke:#000000;stroke-width:1pt;stroke-opacity:1"
         transform="matrix(0.8,0,0,0.8,10,0)" />
    </marker>
    <marker
       inkscape:stockid="Arrow1Lstart"
       orient="auto"
       refY="0"
       refX="0"
       id="marker1892-9"
       style="overflow:visible"
       inkscape:isstock="true">
      <path
         id="path1890-1"
         d="M 0,0 5,-5 -12.5,0 5,5 Z"
         style="fill:#000000;fill-opacity:1;fill-rule:evenodd;stroke:#000000;stroke-width:1pt;stroke-opacity:1"
         transform="matrix(0.8,0,0,0.8,10,0)" />
    </marker>
    <marker
       inkscape:stockid="Arrow1Lstart"
       orient="auto"
       refY="0"
       refX="0"
       id="marker1902-2"
       style="overflow:visible"
       inkscape:isstock="true">
      <path
         id="path1900-7"
         d="M 0,0 5,-5 -12.5,0 5,5 Z"
         style="fill:#000000;fill-opacity:1;fill-rule:evenodd;stroke:#000000;stroke-width:1pt;stroke-opacity:1"
         transform="matrix(0.8,0,0,0.8,10,0)" />
    </marker>
    <marker
       inkscape:isstock="true"
       style="overflow:visible"
       id="marker1882-6-3"
       refX="0"
       refY="0"
       orient="auto"
       inkscape:stockid="Arrow1Lstart">
      <path
         transform="matrix(0.8,0,0,0.8,10,0)"
         style="fill:#b40000;fill-opacity:1;fill-rule:evenodd;stroke:#b40000;stroke-width:1pt;stroke-opacity:1"
         d="M 0,0 5,-5 -12.5,0 5,5 Z"
         id="path1880-2-6" />
    </marker>
    <marker
       inkscape:isstock="true"
       style="overflow:visible"
       id="marker1892-9-7"
       refX="0"
       refY="0"
       orient="auto"
       inkscape:stockid="Arrow1Lstart">
      <path
         transform="matrix(0.8,0,0,0.8,10,0)"
         style="fill:#b40000;fill-opacity:1;fill-rule:evenodd;stroke:#b40000;stroke-width:1pt;stroke-opacity:1"
         d="M 0,0 5,-5 -12.5,0 5,5 Z"
         id="path1890-1-5" />
    </marker>
    <marker
       inkscape:isstock="true"
       style="overflow:visible"
       id="marker1902-2-3"
       refX="0"
       refY="0"
       orient="auto"
       inkscape:stockid="Arrow1Lstart">
      <path
         transform="matrix(0.8,0,0,0.8,10,0)"
         style="fill:#b40000;fill-opacity:1;fill-rule:evenodd;stroke:#b40000;stroke-width:1pt;stroke-opacity:1"
         d="M 0,0 5,-5 -12.5,0 5,5 Z"
         id="path1900-7-5" />
    </marker>
  </defs>
  <sodipodi:namedview
     id="base"
     pagecolor="#ffffff"
     bordercolor="#666666"
     borderopacity="1.0"
     inkscape:pageopacity="0.0"
     inkscape:pageshadow="2"
     inkscape:zoom="0.85549052"
     inkscape:cx="201.6387"
     inkscape:cy="260.66917"
     inkscape:document-units="mm"
     inkscape:current-layer="layer2"
     inkscape:document-rotation="0"
     showgrid="false"
     inkscape:snap-grids="true"
     fit-margin-top="0"
     fit-margin-left="0"
     fit-margin-right="0"
     fit-margin-bottom="0"
     inkscape:window-width="1920"
     inkscape:window-height="1007"
     inkscape:window-x="0"
     inkscape:window-y="0"
     inkscape:window-maximized="1"
     inkscape:pagecheckerboard="0">
    <inkscape:grid
       type="xygrid"
       id="grid92"
       originx="-60.39219"
       originy="-75.133603" />
  </sodipodi:namedview>
  <metadata
     id="metadata5">
    <rdf:RDF>
      <cc:Work
         rdf:about="">
        <dc:format>image/svg+xml</dc:format>
        <dc:type
           rdf:resource="http://purl.org/dc/dcmitype/StillImage" />
        <dc:title />
      </cc:Work>
    </rdf:RDF>
  </metadata>
  <g
     inkscape:groupmode="layer"
     id="layer3"
     inkscape:label="Background"
     style="display:inline"
     transform="translate(-60.392193,-75.133606)">
    <path
       id="path1799"
       style="display:inline;fill:#b4b4b4;fill-opacity:1;stroke-width:0.999999"
       d="M 0,0 V 343.07812 L 343.07812,0 Z M 343.07812,0 0,343.07812 h 343.07812 z"
       inkscape:export-filename="/home/jann/Entwicklung/q-g-j/qminesweeper/images/button_mine_hit.png"
       inkscape:export-xdpi="17.908457"
       inkscape:export-ydpi="17.908457"
       transform="matrix(0.26458333,0,0,0.26458333,60.392193,75.133606)" />
  </g>
  <g
     inkscape:groupmode="layer"
     id="layer2"
     inkscape:label="Mine"
     style="display:inline"
     transform="translate(-60.392193,-75.133606)">
    <path
       id="path16714"
       style="color:#000000;fill:#dc0000;fill-opacity:1;stroke:none;stroke-width:6.9731;stroke-linecap:round;stroke-opacity:1;-inkscape-stroke:none"
       d="m 82.187639,93.718283 a 3.5057008,3.4675017 0 0 0 -2.478815,1.015741 3.5057008,3.4675017 0 0 0 0,4.905157 l 21.111086,20.881029 -21.111086,20.88208 a 3.5057008,3.4675017 0 0 0 0,4.9031 3.5057008,3.4675017 0 0 0 4.957631,0 l 21.111605,-20.88105 21.11108,20.88105 a 3.5057008,3.4675017 0 0 0 4.95919,0 3.5057008,3.4675017 0 0 0 0,-4.9031 l -21.11161,-20.88208 21.11161,-20.881029 a 3.5057008,3.4675017 0 0 0 0,-4.905157 3.5057008,3.4675017 0 0 0 -2.48038,-1.015741 3.5057008,3.4675017 0 0 0 -2.47881,1.015741 L 105.77806,115.6161 84.666455,94.734024 a 3.5057008,3.4675017 0 0 0 -2.478816,-1.015741 z"
       inkscape:export-filename="/home/jann/Entwicklung/q-g-j/qminesweeper/images/button_mine_hit.png"
       inkscape:export-xdpi="17.908457"
       inkscape:export-ydpi="17.908457" />
    <path
       id="path16960"
       style="color:#000000;fill:#dc0000;fill-opacity:1;stroke:none;stroke-width:3.98462;stroke-miterlimit:4;stroke-dasharray:none;stroke-opacity:1"
       d="m 105.77936,77.306973 c -3.03659,0 -5.50889,2.445365 -5.50889,5.448856 V 92.773468 C 88.903103,94.968975 79.946655,103.82692 77.726649,115.07011 H 67.598134 c -3.036579,0 -5.508882,2.44536 -5.508882,5.44885 0,3.00349 2.472303,5.44886 5.508882,5.44886 h 10.128515 c 2.220005,11.24319 11.176454,20.10112 22.543821,22.29662 v 10.0197 c 0,3.00348 2.4723,5.44885 5.50889,5.44885 3.03657,0 5.50938,-2.44537 5.50938,-5.44885 v -10.0197 c 11.36704,-2.19549 20.32204,-11.05346 22.54176,-22.29662 h 10.1285 c 3.0366,0 5.50889,-2.44537 5.50889,-5.44886 0,-3.00349 -2.47229,-5.44885 -5.50889,-5.44885 H 133.8305 C 131.61078,103.82694 122.65578,94.968973 111.28874,92.773468 V 82.755829 c 0,-3.003491 -2.47281,-5.448856 -5.50938,-5.448856 z m -5.50889,15.505917 v 0.0026 a 28.564691,28.253442 0 0 0 -0.320915,0.0599 c 0.106635,-0.02188 0.213885,-0.04176 0.320915,-0.06245 z m 11.01827,0 c 0.1104,0.02135 0.22083,0.04241 0.33076,0.06502 a 28.564691,28.253442 0 0 0 -0.33076,-0.06195 z m 1.3608,0.297453 c 0.37141,0.09077 0.74008,0.18836 1.1056,0.293356 a 28.564691,28.253442 0 0 0 -1.1056,-0.293356 z m -13.754872,0.0041 a 28.564691,28.253442 0 0 0 -1.081281,0.286702 c 0.357438,-0.102531 0.718211,-0.197768 1.081281,-0.286702 z m 15.736782,0.55702 c 0.39042,0.125844 0.77713,0.25954 1.15995,0.401381 a 28.564691,28.253442 0 0 0 -1.15995,-0.401381 z m -17.718698,0.0046 a 28.564691,28.253442 0 0 0 -1.13304,0.392166 c 0.374047,-0.138387 0.751745,-0.269042 1.13304,-0.392166 z m 19.736838,0.731088 c 0.3634,0.148144 0.72303,0.303003 1.07869,0.465377 a 28.564691,28.253442 0 0 0 -1.07869,-0.465377 z m -21.757053,0.0067 a 28.564691,28.253442 0 0 0 -1.045046,0.450531 c 0.344714,-0.157091 0.693084,-0.306795 1.045046,-0.450531 z m 23.733283,0.887238 c 0.31119,0.155382 0.61888,0.316078 0.9234,0.482271 a 28.564691,28.253442 0 0 0 -0.9234,-0.482269 z m -25.712092,0.0092 a 28.564691,28.253442 0 0 0 -0.885624,0.46333 c 0.2923,-0.159232 0.587193,-0.314047 0.885624,-0.46333 z m 27.630332,1.04134 c 0.25396,0.152097 0.50495,0.308308 0.75363,0.467936 a 28.564691,28.253442 0 0 0 -0.75363,-0.467936 z m -29.547026,0.01029 a 28.564691,28.253442 0 0 0 -0.716368,0.444898 c 0.236534,-0.151538 0.475083,-0.300162 0.716368,-0.444898 z m 31.529976,1.293225 c 0.14485,0.103976 0.2889,0.20878 0.43168,0.315371 a 28.564691,28.253442 0 0 0 -0.43168,-0.315371 z m -33.559508,0.04659 a 28.564691,28.253442 0 0 0 -0.35508,0.258542 c 0.117314,-0.08747 0.236367,-0.172834 0.35508,-0.258542 z m 35.344218,1.344422 c 0.0767,0.06487 0.15378,0.129418 0.22981,0.195061 a 28.564691,28.253442 0 0 0 -0.22981,-0.195061 z m -37.124784,0.04965 a 28.564691,28.253442 0 0 0 -0.138718,0.118268 c 0.04603,-0.03961 0.09243,-0.07891 0.138718,-0.118268 z m 38.710214,1.394604 c 0.0442,0.0434 0.0881,0.0869 0.13199,0.13055 a 28.564691,28.253442 0 0 0 -0.13199,-0.13055 z m -40.258374,0.0215 a 28.564691,28.253442 0 0 0 -0.08799,0.087 c 0.02927,-0.029 0.0586,-0.0581 0.08799,-0.087 z m 41.665224,1.4637 c 0.0536,0.0609 0.10674,0.1224 0.15993,0.18379 a 28.564691,28.253442 0 0 0 -0.15993,-0.18379 z m -43.052408,0.002 a 28.564691,28.253442 0 0 0 -0.151141,0.17407 c 0.05035,-0.058 0.100325,-0.1164 0.151141,-0.17407 z m 44.322098,1.54562 c 0.11097,0.1454 0.2205,0.29222 0.32867,0.43979 a 28.564691,28.253442 0 0 0 -0.32867,-0.43979 z m -45.592303,0.003 a 28.564691,28.253442 0 0 0 -0.301248,0.40341 c 0.09943,-0.13519 0.199463,-0.27004 0.301248,-0.40341 z m 46.752773,1.63419 c 0.16437,0.25033 0.32539,0.503 0.48189,0.75874 a 28.564691,28.253442 0 0 0 -0.48189,-0.75874 z m -47.913246,0.004 a 28.564691,28.253442 0 0 0 -0.479304,0.75412 c 0.155583,-0.2542 0.315925,-0.50524 0.479304,-0.75412 z m -1.045565,1.7243 a 28.564691,28.253442 0 0 0 -0.497419,0.93075 c 0.159991,-0.31368 0.326079,-0.62391 0.497419,-0.93075 z m 50.006961,0 c 0.17132,0.30684 0.33745,0.61707 0.49742,0.93075 a 28.564691,28.253442 0 0 0 -0.49742,-0.93075 z m -50.927264,1.79649 a 28.564691,28.253442 0 0 0 -0.48241,1.09459 c 0.153458,-0.36876 0.313818,-0.73388 0.48241,-1.09459 z m 51.852224,0.0112 c 0.16559,0.35476 0.3237,0.71364 0.47465,1.07615 a 28.564691,28.253442 0 0 0 -0.47465,-1.07615 z m -52.660725,1.90145 a 28.564691,28.253442 0 0 0 -0.417707,1.1811 c 0.130725,-0.39756 0.269846,-0.79151 0.417707,-1.1811 z m 53.470265,0.0169 c 0.14299,0.37757 0.27785,0.7592 0.40476,1.14424 a 28.564691,28.253442 0 0 0 -0.40476,-1.14424 z m -54.147811,1.9982 a 28.564691,28.253442 0 0 0 -0.305906,1.12786 c 0.0944,-0.37894 0.196203,-0.75511 0.305906,-1.12786 z m 54.820701,0.004 c 0.10718,0.36437 0.20662,0.73198 0.29917,1.10226 a 28.564691,28.253442 0 0 0 -0.29917,-1.10226 z m -55.354354,2.10976 a 28.564691,28.253442 0 0 0 -0.06522,0.342 h -0.0037 c 0.02257,-0.11415 0.04489,-0.22837 0.06884,-0.342 z m 55.890594,0.0179 c 0.0226,0.10763 0.0433,0.21598 0.0647,0.32409 h -0.003 a 28.564691,28.253442 0 0 0 -0.0616,-0.32409 z m -55.959435,11.22179 h 0.0031 a 28.564691,28.253442 0 0 0 0.0647,0.33892 c -0.02372,-0.11263 -0.04545,-0.22582 -0.06781,-0.33892 z m 0.29866,1.33673 a 28.564691,28.253442 0 0 0 0.301246,1.11148 c -0.108016,-0.36742 -0.208092,-0.73803 -0.301246,-1.11148 z m 0.567295,1.96391 a 28.564691,28.253442 0 0 0 0.410979,1.16267 c -0.145418,-0.38355 -0.282159,-0.77142 -0.410979,-1.16267 z m 0.744835,2.00025 a 28.564691,28.253442 0 0 0 0.472057,1.07103 c -0.164822,-0.35311 -0.32173,-0.71022 -0.472057,-1.07103 z m 0.905293,1.95775 a 28.564691,28.253442 0 0 0 0.489138,0.91591 c -0.168484,-0.30192 -0.331635,-0.60736 -0.489138,-0.91591 z m 1.059022,1.89275 a 28.564691,28.253442 0 0 0 0.47775,0.75157 c -0.162824,-0.24811 -0.322671,-0.49817 -0.47775,-0.75157 z m 1.352504,2.00793 a 28.564691,28.253442 0 0 0 0.27692,0.37169 c -0.09368,-0.12292 -0.185242,-0.24724 -0.27692,-0.37169 z m 1.406337,1.75963 a 28.564691,28.253442 0 0 0 0.151141,0.17407 c -0.05082,-0.0576 -0.100792,-0.11599 -0.151141,-0.17407 z m 1.450331,1.5533 a 28.564691,28.253442 0 0 0 0.08799,0.0871 c -0.0294,-0.0289 -0.05872,-0.0579 -0.08799,-0.0871 z m 1.495367,1.38334 a 28.564691,28.253442 0 0 0 0.140787,0.11979 c -0.04696,-0.0399 -0.09411,-0.0795 -0.140787,-0.11979 z m 1.563687,1.25328 a 28.564691,28.253442 0 0 0 0.386651,0.2821 c -0.129453,-0.0933 -0.258859,-0.18679 -0.386651,-0.2821 z m 1.653233,1.14425 a 28.564691,28.253442 0 0 0 0.747939,0.46486 c -0.252068,-0.15102 -0.501055,-0.30641 -0.747939,-0.46486 z m 1.747438,1.03572 a 28.564691,28.253442 0 0 0 0.919786,0.48021 c -0.309919,-0.1548 -0.61648,-0.3147 -0.919786,-0.48021 z m 1.82042,0.91078 a 28.564691,28.253442 0 0 0 1.091631,0.47099 c -0.367857,-0.14974 -0.731678,-0.30666 -1.091631,-0.47099 z m 1.931706,0.79764 a 28.564691,28.253442 0 0 0 1.170825,0.40497 c -0.394113,-0.12695 -0.784454,-0.26173 -1.170825,-0.40497 z m 2.019697,0.66453 a 28.564691,28.253442 0 0 0 1.155299,0.30666 c -0.388184,-0.0944 -0.773543,-0.19666 -1.155299,-0.30666 z m 2.146515,0.52989 a 28.564691,28.253442 0 0 0 0.341625,0.064 v 0.003 c -0.11402,-0.022 -0.22809,-0.0441 -0.341625,-0.0676 z"
       inkscape:export-filename="/home/jann/Entwicklung/q-g-j/qminesweeper/images/button_mine_hit.png"
       inkscape:export-xdpi="17.908457"
       inkscape:export-ydpi="17.908457" />
    <ellipse
       transform="matrix(0.75629665,-0.65422884,0.58761158,0.80914314,0,0)"
       ry="5.6696415"
       rx="9.996253"
       cy="142.88567"
       cx="11.885515"
       id="path2169"
       style="display:inline;fill:#ffffff;fill-rule:evenodd;stroke:none;stroke-width:2.99389;stroke-miterlimit:4;stroke-dasharray:none;stroke-opacity:1"
       inkscape:export-filename="/home/jann/Entwicklung/q-g-j/qminesweeper/images/button_mine_hit.png"
       inkscape:export-xdpi="17.908457"
       inkscape:export-ydpi="17.908457" />
  </g>
</svg>
