<?xml version="1.0" encoding="UTF-8" standalone="no"?>
<svg
   width="276.58786mm"
   height="276.58786mm"
   viewBox="0 0 276.58786 276.58786"
   version="1.1"
   id="svg8"
   inkscape:version="1.1.1 (3bf5ae0d25, 2021-09-20)"
   sodipodi:docname="window_icon.svg"
   inkscape:export-filename="/home/jann/Entwicklung/q-g-j/qminesweeper/images/button_mine_hit.png"
   inkscape:export-xdpi="16.790001"
   inkscape:export-ydpi="16.790001"
   xmlns:inkscape="http://www.inkscape.org/namespaces/inkscape"
   xmlns:sodipodi="http://sodipodi.sourceforge.net/DTD/sodipodi-0.dtd"
   xmlns="http://www.w3.org/2000/svg"
   xmlns:svg="http://www.w3.org/2000/svg"
   xmlns:rdf="http://www.w3.org/1999/02/22-rdf-syntax-ns#"
   xmlns:cc="http://creativecommons.org/ns#"
   xmlns:dc="http://purl.org/dc/elements/1.1/">
  <defs
     id="defs2">
    <inkscape:perspective
       sodipodi:type="inkscape:persp3d"
       inkscape:vp_x="0 : -81.139414 : 1"
       inkscape:vp_y="0 : 999.99994 : 0"
       inkscape:vp_z="209.99999 : -81.139414 : 1"
       inkscape:persp3d-origin="105 : -130.63941 : 1"
       id="perspective29" />
    <marker
       inkscape:stockid="Arrow1Lstart"
       orient="auto"
       refY="0"
       refX="0"
       id="marker1882-6"
       style="overflow:visible"
       inkscape:isstock="true">
      <path
         id="path1880-2"
         d="M 0,0 5,-5 -12.5,0 5,5 Z"
         style="fill:#000000;fill-opacity:1;fill-rule:evenodd;stroke:#000000;stroke-width:1pt;stroke-opacity:1"
         transform="matrix(0.8,0,0,0.8,10,0)" />
    </marker>
    <marker
       inkscape:stockid="Arrow1Lstart"
       orient="auto"
       refY="0"
       refX="0"
       id="marker1892-9"
       style="overflow:visible"
       inkscape:isstock="true">
      <path
         id="path1890-1"
         d="M 0,0 5,-5 -12.5,0 5,5 Z"
         style="fill:#000000;fill-opacity:1;fill-rule:evenodd;stroke:#000000;stroke-width:1pt;stroke-opacity:1"
         transform="matrix(0.8,0,0,0.8,10,0)" />
    </marker>
    <marker
       inkscape:stockid="Arrow1Lstart"
       orient="auto"
       refY="0"
       refX="0"
       id="marker1902-2"
       style="overflow:visible"
       inkscape:isstock="true">
      <path
         id="path1900-7"
         d="M 0,0 5,-5 -12.5,0 5,5 Z"
         style="fill:#000000;fill-opacity:1;fill-rule:evenodd;stroke:#000000;stroke-width:1pt;stroke-opacity:1"
         transform="matrix(0.8,0,0,0.8,10,0)" />
    </marker>
    <marker
       inkscape:isstock="true"
       style="overflow:visible"
       id="marker1882-6-3"
       refX="0"
       refY="0"
       orient="auto"
       inkscape:stockid="Arrow1Lstart">
      <path
         transform="matrix(0.8,0,0,0.8,10,0)"
         style="fill:#b40000;fill-opacity:1;fill-rule:evenodd;stroke:#b40000;stroke-width:1pt;stroke-opacity:1"
         d="M 0,0 5,-5 -12.5,0 5,5 Z"
         id="path1880-2-6" />
    </marker>
    <marker
       inkscape:isstock="true"
       style="overflow:visible"
       id="marker1892-9-7"
       refX="0"
       refY="0"
       orient="auto"
       inkscape:stockid="Arrow1Lstart">
      <path
         transform="matrix(0.8,0,0,0.8,10,0)"
         style="fill:#b40000;fill-opacity:1;fill-rule:evenodd;stroke:#b40000;stroke-width:1pt;stroke-opacity:1"
         d="M 0,0 5,-5 -12.5,0 5,5 Z"
         id="path1890-1-5" />
    </marker>
    <marker
       inkscape:isstock="true"
       style="overflow:visible"
       id="marker1902-2-3"
       refX="0"
       refY="0"
       orient="auto"
       inkscape:stockid="Arrow1Lstart">
      <path
         transform="matrix(0.8,0,0,0.8,10,0)"
         style="fill:#b40000;fill-opacity:1;fill-rule:evenodd;stroke:#b40000;stroke-width:1pt;stroke-opacity:1"
         d="M 0,0 5,-5 -12.5,0 5,5 Z"
         id="path1900-7-5" />
    </marker>
  </defs>
  <sodipodi:namedview
     id="base"
     pagecolor="#ffffff"
     bordercolor="#666666"
     borderopacity="1.0"
     inkscape:pageopacity="0.0"
     inkscape:pageshadow="2"
     inkscape:zoom="0.30246158"
     inkscape:cx="562.05486"
     inkscape:cy="629.83206"
     inkscape:document-units="mm"
     inkscape:current-layer="layer2"
     inkscape:document-rotation="0"
     showgrid="false"
     inkscape:snap-grids="true"
     fit-margin-top="0"
     fit-margin-left="0"
     fit-margin-right="0"
     fit-margin-bottom="0"
     inkscape:window-width="1920"
     inkscape:window-height="1007"
     inkscape:window-x="0"
     inkscape:window-y="0"
     inkscape:window-maximized="1"
     inkscape:pagecheckerboard="0"
     inkscape:snap-bbox="true"
     inkscape:bbox-paths="true"
     inkscape:bbox-nodes="true"
     inkscape:snap-bbox-edge-midpoints="true"
     inkscape:snap-bbox-midpoints="true"
     inkscape:object-paths="true"
     inkscape:snap-intersection-paths="true"
     inkscape:snap-smooth-nodes="true"
     inkscape:snap-midpoints="true"
     inkscape:snap-object-midpoints="true"
     inkscape:snap-center="true"
     inkscape:snap-text-baseline="true"
     inkscape:snap-page="true">
    <inkscape:grid
       type="xygrid"
       id="grid92"
       originx="-72.097752"
       originy="-86.83968" />
  </sodipodi:namedview>
  <metadata
     id="metadata5">
    <rdf:RDF>
      <cc:Work
         rdf:about="">
        <dc:format>image/svg+xml</dc:format>
        <dc:type
           rdf:resource="http://purl.org/dc/dcmitype/StillImage" />
      </cc:Work>
    </rdf:RDF>
  </metadata>
  <g
     inkscape:groupmode="layer"
     id="layer3"
     inkscape:label="Background"
     style="display:inline"
     transform="translate(-72.097756,-86.839687)" />
  <g
     inkscape:groupmode="layer"
     id="layer2"
     inkscape:label="Mine"
     style="display:inline"
     transform="translate(-72.097756,-86.839687)">
    <path
       id="path1741"
       style="color:#000000;fill:#000000;stroke:#ffffff;stroke-width:37.7953;stroke-linecap:round;stroke-miterlimit:4;stroke-dasharray:none;stroke-opacity:1;paint-order:markers stroke fill"
       d="M 503.78906,0 A 61.03937,61.03937 0 0 0 442.74805,61.041016 V 186.68359 a 323.14961,323.14961 0 0 0 -138.52539,63.04102 l -57.79493,-57.79492 a 38.540031,38.540031 0 0 0 -27.24609,-11.29492 38.540031,38.540031 0 0 0 -27.25391,11.29492 38.540031,38.540031 0 0 0 0,54.5 l 57.79688,57.79687 A 323.14961,323.14961 0 0 0 186.68359,442.75195 H 61.039062 A 61.03937,61.03937 0 0 0 -0.00195313,503.78516 61.03937,61.03937 0 0 0 61.039062,564.82617 H 186.68359 a 323.14961,323.14961 0 0 0 63.03907,138.52539 l -57.79493,57.79492 a 38.540031,38.540031 0 0 0 0,54.50196 38.540031,38.540031 0 0 0 54.5,0 l 57.79688,-57.79492 a 323.14961,323.14961 0 0 0 138.52344,63.03906 v 125.64258 a 61.03937,61.03937 0 0 0 61.04101,61.04104 61.03937,61.03937 0 0 0 61.04102,-61.04104 V 820.89062 a 323.14961,323.14961 0 0 0 138.51953,-63.0371 l 57.79492,57.79492 a 38.540031,38.540031 0 0 0 54.50781,0 38.540031,38.540031 0 0 0 0,-54.50196 L 757.85352,703.34766 A 323.14961,323.14961 0 0 0 820.89258,564.82617 H 946.5332 a 61.03937,61.03937 0 0 0 61.041,-61.04101 61.03937,61.03937 0 0 0 -61.041,-61.03321 H 821.0957 A 323.14961,323.14961 0 0 0 757.90234,304.17969 l 57.75,-57.75 a 38.540031,38.540031 0 0 0 0,-54.5 38.540031,38.540031 0 0 0 -27.2539,-11.29492 38.540031,38.540031 0 0 0 -27.25391,11.29492 l -57.74609,57.74609 A 323.14961,323.14961 0 0 0 564.83008,186.48242 V 61.041016 A 61.03937,61.03937 0 0 0 503.78906,0 Z"
       transform="matrix(0.26458333,0,0,0.26458333,77.098276,91.83969)"
       inkscape:export-filename="/home/jann/Entwicklung/q-g-j/qminesweeper/icons/png/window-icon.png"
       inkscape:export-xdpi="4.5900002"
       inkscape:export-ydpi="4.5900002" />
    <path
       id="path2169"
       style="display:inline;fill:#ffffff;fill-rule:evenodd;stroke-width:8.62001;paint-order:fill markers stroke"
       transform="matrix(0.74899948,-0.66257059,0.57900479,0.81532414,0,0)"
       d="M 61.599997,257.17499 A 28.708467,16.365372 0 0 1 32.891529,273.54036 28.708467,16.365372 0 0 1 4.1830616,257.17499 28.708467,16.365372 0 0 1 32.891529,240.80962 28.708467,16.365372 0 0 1 61.599997,257.17499 Z"
       inkscape:export-filename="/home/jann/Entwicklung/q-g-j/qminesweeper/icons/png/window-icon.png"
       inkscape:export-xdpi="4.5900002"
       inkscape:export-ydpi="4.5900002" />
  </g>
</svg>
